<?xml version="1.0" encoding="UTF-8"?>
<svg version="1.1" xmlns="http://www.w3.org/2000/svg" width="340" height="381">
<path d="M0 0 C0.99773437 -0.03577148 0.99773437 -0.03577148 2.015625 -0.07226562 C13.16352842 -0.04071495 23.43813314 6.88533328 32.8125 12.25 C33.90763916 12.87011963 35.00277832 13.49023926 36.13110352 14.12915039 C43.49246656 18.30944379 50.80529352 22.56779562 58.0859375 26.88671875 C63.75828613 30.24395465 69.47506883 33.52410625 75.1875 36.8125 C84.66659478 42.27120085 94.12525571 47.7633461 103.56884766 53.28320312 C109.93299956 57.00007735 116.30966603 60.69449264 122.69604492 64.37304688 C125.99179691 66.27176714 129.28504374 68.17477757 132.578125 70.078125 C136.30744984 72.23227304 140.04549896 74.36889314 143.796875 76.484375 C157.10041076 84.03344881 165.33813937 91.0057236 169.68768311 106.2989502 C171.15184444 113.13517419 170.90426887 120.08293087 170.88378906 127.03710938 C170.88650319 128.59031844 170.89006648 130.14352621 170.89440918 131.69673157 C170.90348531 135.8929825 170.90000873 140.0891345 170.89365101 144.28538704 C170.88856619 148.68940613 170.89328934 153.09341708 170.89642334 157.49743652 C170.90005577 164.89137279 170.89528288 172.28526903 170.88574219 179.67919922 C170.87485903 188.21172783 170.87838512 196.74416085 170.889395 205.27668715 C170.8984885 212.61963195 170.89974307 219.96254807 170.89451766 227.30549669 C170.89140929 231.68363543 170.89095735 236.06172931 170.89759064 240.43986511 C170.90339354 244.55706923 170.89931362 248.67415081 170.88780212 252.79134178 C170.88517123 254.29692062 170.88589359 255.80250988 170.89032745 257.30808449 C170.91666657 267.16518276 170.82381425 276.32519855 165.9375 285.1875 C165.47988281 286.04601562 165.02226562 286.90453125 164.55078125 287.7890625 C159.31409776 295.33073649 152.73767886 299.63090374 144.8125 304.0625 C143.76497559 304.66070557 142.71745117 305.25891113 141.63818359 305.87524414 C139.42285867 307.1400405 137.20502975 308.40045997 134.98486328 309.65673828 C130.63355497 312.12486157 126.30367876 314.62916495 121.97387695 317.13476562 C118.71650603 319.01937856 115.45634824 320.89908021 112.1953125 322.77734375 C105.67013757 326.53605381 99.1473655 330.2989175 92.625 334.0625 C90.45834417 335.31251879 88.2916775 336.56251878 86.125 337.8125 C85.0525 338.43125 83.98 339.05 82.875 339.6875 C73.125 345.3125 73.125 345.3125 69.87109375 347.18969727 C67.7173828 348.43226019 65.56373633 349.67493489 63.41015625 350.91772461 C58.38815738 353.81564623 53.36557193 356.71253349 48.34057617 359.60525513 C46.57454478 360.62197198 44.80872569 361.63905658 43.04296875 362.65625 C40.83765845 363.92650873 38.63195784 365.19609018 36.42578125 366.46484375 C30.84984089 369.67761348 25.3129245 372.93729714 19.83618164 376.31689453 C9.74666027 382.0005357 -1.34809908 382.63977467 -12.375 379.5625 C-24.58945115 374.72073558 -35.84782326 367.11455364 -47.12792969 360.46826172 C-52.48485526 357.32418946 -57.86721436 354.22452384 -63.25 351.125 C-64.32926758 350.50302734 -65.40853516 349.88105469 -66.52050781 349.24023438 C-68.71114966 347.9778306 -70.901905 346.71562377 -73.09277344 345.45361328 C-79.60371257 341.70221976 -86.11163194 337.94559006 -92.62011719 334.18994141 C-99.15541305 330.41912483 -105.69222791 326.65096188 -112.23046875 322.88525391 C-115.4707853 321.01684557 -118.70810327 319.14331685 -121.9453125 317.26953125 C-126.2803488 314.76245067 -130.63052598 312.28465972 -134.9921875 309.82421875 C-137.11983324 308.61205213 -139.24743895 307.39981525 -141.375 306.1875 C-142.3355127 305.65310303 -143.29602539 305.11870605 -144.28564453 304.56811523 C-152.98119333 299.58426763 -161.76300385 293.65819282 -165.9375 284.25 C-166.39253906 283.26386719 -166.84757813 282.27773438 -167.31640625 281.26171875 C-169.13318809 276.62926026 -169.50456235 272.81587232 -169.52217102 267.8155365 C-169.52584771 267.13792678 -169.5295244 266.46031706 -169.5333125 265.76217371 C-169.54432219 263.49240171 -169.54818859 261.22267553 -169.55200195 258.95288086 C-169.5582688 257.3248378 -169.5649158 255.69679618 -169.57191467 254.0687561 C-169.59293625 248.72162874 -169.60331727 243.37450117 -169.61328125 238.02734375 C-169.61732992 236.18386889 -169.62144688 234.34039419 -169.62563133 232.49691963 C-169.64468111 223.83273435 -169.65891096 215.16855756 -169.6672433 206.50435537 C-169.67700654 196.51814581 -169.70330306 186.53215844 -169.74374419 176.54602712 C-169.77395957 168.81844809 -169.78871743 161.09093255 -169.79202431 153.36329561 C-169.79436917 148.75242629 -169.80325551 144.1417944 -169.82848549 139.53098869 C-169.85186542 135.18806137 -169.85595985 130.84552612 -169.84572411 126.50255203 C-169.84523099 124.91556172 -169.85148473 123.32855145 -169.86528015 121.74162102 C-169.96154937 110.00297629 -168.67622804 100.1453618 -161.375 90.5625 C-160.7871875 89.76199219 -160.199375 88.96148437 -159.59375 88.13671875 C-150.15234159 77.18269033 -133.38366306 70.77864493 -120.88287354 63.69145203 C-114.61375003 60.13539898 -108.36679478 56.54129236 -102.125 52.9375 C-101.05604492 52.32052246 -99.98708984 51.70354492 -98.88574219 51.06787109 C-90.71642084 46.34773602 -82.56618633 41.59530213 -74.41967773 36.8359375 C-63.80057559 30.63571545 -53.15056404 24.48972148 -42.49072266 18.35986328 C-39.46113992 16.61219144 -36.4387848 14.85261547 -33.41796875 13.08984375 C-31.57036101 12.01814553 -29.72270726 10.94652663 -27.875 9.875 C-26.64873901 9.15352783 -26.64873901 9.15352783 -25.39770508 8.41748047 C-17.26324355 3.71958347 -9.55031748 -0.15551283 0 0 Z " fill="#FFFFFF" transform="translate(169.375,-0.5625)"/>
<path d="M0 0 C2.67225451 0.04109368 5.34320684 0.07345788 8.01554871 0.09432983 C14.30201123 0.16234192 20.57991374 0.34226096 26.86262769 0.56401861 C34.02239705 0.81116621 41.1826081 0.93117458 48.34559023 1.04131818 C63.06156799 1.27041131 77.77086869 1.65656617 92.48046875 2.1484375 C96.14257812 8.49609375 99.8046875 14.84375 103.46679688 21.19140625 C103.79663511 21.76312435 104.12647335 22.33484245 104.46630669 22.92388535 C106.15106438 25.84412604 107.83581165 28.76437276 109.52053833 31.68463135 C110.17198822 32.81382996 110.82343811 33.94302856 111.49462891 35.10644531 C112.07540192 36.1131427 112.65617493 37.11984009 113.25454712 38.15704346 C115.07701324 41.3157699 116.89981526 44.47430238 118.72265625 47.6328125 C121.25186071 52.01641544 123.7775295 56.40203061 126.30078125 60.7890625 C127.56900005 62.99219347 128.83722914 65.19531851 130.10546875 67.3984375 C131.02501343 68.99872803 131.02501343 68.99872803 131.96313477 70.63134766 C135.03301371 75.96039378 138.13720677 81.26423743 141.3125 86.53125 C142.22298096 88.0467041 142.22298096 88.0467041 143.15185547 89.59277344 C144.30069836 91.49914751 145.45690023 93.40111268 146.62158203 95.29785156 C147.13060059 96.1431543 147.63961914 96.98845703 148.1640625 97.859375 C148.61322021 98.59462402 149.06237793 99.32987305 149.52514648 100.08740234 C150.48046875 102.1484375 150.48046875 102.1484375 150.48046875 106.1484375 C149.35400391 108.62768555 149.35400391 108.62768555 147.76953125 111.41015625 C147.18953369 112.4374585 146.60953613 113.46476074 146.01196289 114.52319336 C145.38281982 115.61639893 144.75367676 116.70960449 144.10546875 117.8359375 C143.46279053 118.96717041 142.8201123 120.09840332 142.15795898 121.26391602 C137.89178579 128.75249655 133.55344699 136.19715896 129.15625 143.609375 C125.79901197 149.28172723 122.51911082 154.99864562 119.23046875 160.7109375 C114.13585172 169.54980674 109.03999223 178.38791454 103.91796875 187.2109375 C103.35883789 188.179104 102.79970703 189.14727051 102.22363281 190.14477539 C101.68834961 191.06508545 101.15306641 191.98539551 100.6015625 192.93359375 C99.91211548 194.12287476 99.91211548 194.12287476 99.20874023 195.33618164 C98.63841064 196.26422607 98.06808105 197.19227051 97.48046875 198.1484375 C97.12628341 198.87690069 96.77209806 199.60536388 96.40717983 200.35590172 C92.98168064 206.64604576 92.98168064 206.64604576 89.03263378 207.96762371 C85.94705671 208.25845672 82.97366435 208.26203944 79.87548828 208.17016602 C78.1331617 208.17213737 78.1331617 208.17213737 76.3556366 208.17414856 C72.52330209 208.16788722 68.69492589 208.09792916 64.86328125 208.02734375 C62.2037794 208.01055389 59.54449564 207.99730214 56.88497925 207.98875427 C50.60524829 207.96082284 44.32693389 207.88702957 38.04782569 207.79660887 C30.89687462 207.69587737 23.74585449 207.64649512 16.59437013 207.60134995 C1.88901308 207.50737282 -12.81523437 207.34915518 -27.51953125 207.1484375 C-27.9073024 206.45362778 -28.29507355 205.75881805 -28.69459534 205.04295349 C-30.4906456 201.82621749 -32.28828454 198.61037185 -34.0859375 195.39453125 C-34.69554321 194.30217163 -35.30514893 193.20981201 -35.93322754 192.08435059 C-40.0350669 184.74985501 -44.21142346 177.46311714 -48.45703125 170.2109375 C-49.10414062 169.10484131 -49.75125 167.99874512 -50.41796875 166.85913086 C-50.92585938 165.99425049 -51.43375 165.12937012 -51.95703125 164.23828125 C-56.2788911 156.86225941 -60.55645485 149.4607544 -64.80834961 142.04418945 C-67.74786821 136.9218867 -70.70628827 131.81443057 -73.74732971 126.75180054 C-75.17160756 124.37806402 -76.58367105 121.99717097 -77.99490356 119.61566162 C-78.99708548 117.93605548 -80.01679465 116.26694692 -81.03686523 114.59814453 C-81.94094116 113.06843018 -81.94094116 113.06843018 -82.86328125 111.5078125 C-83.40146484 110.61545898 -83.93964844 109.72310547 -84.49414062 108.80371094 C-85.79918146 105.42427662 -85.48767407 103.61348951 -84.51953125 100.1484375 C-83.35888672 97.67675781 -83.35888672 97.67675711 -81.88671875 95.2265625 C-81.3357251 94.29730957 -80.78473145 93.36805664 -80.21704102 92.41064453 C-79.61561279 91.41661621 -79.01418457 90.42258789 -78.39453125 89.3984375 C-77.10859856 87.23483629 -75.82346915 85.07075748 -74.5390625 82.90625 C-73.87342285 81.79024414 -73.2077832 80.67423828 -72.52197266 79.52441406 C-69.32580894 74.13590493 -66.2045224 68.70485934 -63.08203125 63.2734375 C-61.8256362 61.0936835 -60.56912508 58.9139964 -59.3125 56.734375 C-56.7717256 52.32389997 -54.23312558 47.9121795 -51.6953125 43.5 C-51.05843506 42.39382324 -50.42155762 41.28764648 -49.76538086 40.14794922 C-48.5867252 38.10072139 -47.40901925 36.05294621 -46.23266602 34.00439453 C-45.09610537 32.03080894 -43.9312053 30.07330253 -42.7401123 28.13214111 C-40.95224888 25.09404299 -39.59686141 21.99138345 -38.25035095 18.73550415 C-29.70463078 -0.36264708 -19.6254605 -0.88892551 0 0 Z " fill="#000000" transform="translate(137.51953125,85.8515625)"/>
<path d="M0 0 C7.65627095 1.04459199 7.65627095 1.04459199 10.875 2.375 C15.19514204 4.09458595 19.58295126 5.55162434 24 7 C22.59159215 13.75207292 20.79171208 20.28899458 18.75 26.875 C18.4420752 27.87732666 18.13415039 28.87965332 17.81689453 29.91235352 C15.15308315 38.56186549 12.43020658 47.1925144 9.69091797 55.81835938 C8.38806079 59.93225751 7.10292163 64.0516858 5.81933594 68.17163086 C4.82820639 71.35249281 3.83150862 74.53122366 2.82421875 77.70703125 C-0.08022369 86.8933948 -2.79189753 96.12756107 -5.46850586 105.3828125 C-7.48303191 112.31585655 -9.59577401 119.19051521 -12 126 C-17.12914773 125.28716318 -21.93375614 123.93243564 -26.875 122.4375 C-28.050625 122.08655273 -28.050625 122.08655273 -29.25 121.72851562 C-31.16763195 121.15556462 -33.08395266 120.57822809 -35 120 C-36.01547143 116.17667354 -35.94472346 113.85265382 -34.671875 110.12109375 C-34.36797852 109.20537598 -34.06408203 108.2896582 -33.75097656 107.34619141 C-33.4206543 106.38632324 -33.09033203 105.42645508 -32.75 104.4375 C-32.09090991 102.4553692 -31.43463241 100.47230083 -30.78125 98.48828125 C-30.31138672 97.06443115 -30.31138672 97.06443115 -29.83203125 95.61181641 C-28.57478471 91.66521328 -27.59043272 87.67640056 -26.703125 83.6328125 C-26 81 -26 81 -24.69360352 77.58081055 C-22.63931594 72.14934338 -20.93060497 66.61535201 -19.19921875 61.07421875 C-18.84036087 59.9320137 -18.48150299 58.78980865 -18.11177063 57.61299133 C-16.96827392 53.9718077 -15.82781061 50.32968253 -14.6875 46.6875 C-13.93314915 44.28313834 -13.17859367 41.87884088 -12.42382812 39.47460938 C-10.96186449 34.81716478 -9.5008861 30.15941288 -8.04052734 25.50146484 C-5.37296452 16.99699024 -2.68876223 8.4977923 0 0 Z " fill="#FFFFFF" transform="translate(178,127)"/>
<path d="M0 0 C6.1241816 5.06500238 11.70715861 10.5782921 17.30859375 16.2109375 C18.28485986 17.18907267 19.26134994 18.16698435 20.23805237 19.14468384 C22.78672577 21.69714399 25.33237958 24.25259448 27.87738037 26.80871582 C30.48346618 29.42509914 33.09244621 32.03859303 35.70117188 34.65234375 C40.80359118 39.76543246 45.90281857 44.88168912 51 50 C49.26798575 53.70442254 47.17198443 56.04517135 44.23828125 58.921875 C43.76939987 59.38555481 43.30051849 59.84923462 42.81742859 60.32696533 C41.32048402 61.80617025 39.81704251 63.27852701 38.3125 64.75 C32.60237904 70.35287551 26.94681909 75.92914268 21.74536133 82.01660156 C18.23208865 86.00902389 14.44508203 89.73935556 10.6875 93.5 C9.47223633 94.73363281 9.47223633 94.73363281 8.23242188 95.9921875 C7.07129883 97.15621094 7.07129883 97.15621094 5.88671875 98.34375 C4.83810669 99.39852539 4.83810669 99.39852539 3.76831055 100.47460938 C2 102 2 102 0 102 C-3.12962963 72.94526749 -3.12962963 72.94526749 4.0078125 63.8671875 C8.25741362 59.39900131 12.93357985 55.50936431 18 52 C16.62087025 48.72336284 15.23167495 47.21143173 12.3046875 45.234375 C6.05593764 40.48038005 0.79818829 36.13559354 -0.74902344 28.11914062 C-1.61225846 18.78725614 -0.88037532 9.30488989 0 0 Z " fill="#FFFFFF" transform="translate(212,139)"/>
<path d="M0 0 C3.12962963 29.05473251 3.12962963 29.05473251 -4.0078125 38.1328125 C-8.25741362 42.60099869 -12.93357985 46.49063569 -18 50 C-16.62087025 53.27663716 -15.23167495 54.78856827 -12.3046875 56.765625 C-6.05593764 61.51961995 -0.79818829 65.86440646 0.74902344 73.88085938 C1.61225846 83.21274386 0.88037532 92.69511011 0 102 C-6.1241816 96.93499762 -11.70715861 91.4217079 -17.30859375 85.7890625 C-18.28485986 84.81092733 -19.26134994 83.83301565 -20.23805237 82.85531616 C-22.78672577 80.30285601 -25.33237958 77.74740552 -27.87738037 75.19128418 C-30.48346618 72.57490086 -33.09244621 69.96140697 -35.70117188 67.34765625 C-40.80359118 62.23456754 -45.90281857 57.11831088 -51 52 C-49.45071235 48.30600749 -47.20284832 45.95517369 -44.38256836 43.13964844 C-43.91571121 42.67089294 -43.44885406 42.20213745 -42.96784973 41.71917725 C-41.43001796 40.17765324 -39.88512739 38.64342601 -38.33984375 37.109375 C-37.26856136 36.03928499 -36.19764867 34.96882476 -35.12709045 33.89801025 C-32.88655427 31.65903604 -30.64270389 29.42345626 -28.39624023 27.19042969 C-25.51022987 24.32146008 -22.63089776 21.44589995 -19.7537756 18.56801987 C-17.54512293 16.35963838 -15.33387955 14.15386696 -13.12173653 11.94898224 C-12.05854642 10.88898327 -10.9959688 9.82836962 -9.93400383 8.76714325 C-8.45451718 7.28981256 -6.97179288 5.81581472 -5.48803711 4.34277344 C-4.64357529 3.50212341 -3.79911346 2.66147339 -2.92906189 1.79534912 C-1 0 -1 0 0 0 Z " fill="#FFFFFF" transform="translate(128,139)"/>
</svg>
